<svg id="icon" xmlns="http://www.w3.org/2000/svg" viewBox="0 0 48 48">
    <path fill="#11945a" d="M16.599,41.42L1.58,26.401c-0.774-0.774-0.774-2.028,0-2.802l4.019-4.019	c0.774-0.774,2.028-0.774,2.802,0L23.42,34.599c0.774,0.774,0.774,2.028,0,2.802l-4.019,4.019	C18.627,42.193,17.373,42.193,16.599,41.42z"/>
    <path fill="#21b876" d="M12.58,34.599L39.599,7.58c0.774-0.774,2.028-0.774,2.802,0l4.019,4.019	c0.774,0.774,0.774,2.028,0,2.802L19.401,41.42c-0.774,0.774-2.028,0.774-2.802,0l-4.019-4.019	C11.807,36.627,11.807,35.373,12.58,34.599z"/>
</svg>