<svg id="icon" xmlns="http://www.w3.org/2000/svg"  viewBox="0 0 48 48">
    <path fill="#e52030" d="M42.42,12.401c0.774-0.774,0.774-2.028,0-2.802L38.401,5.58c-0.774-0.774-2.028-0.774-2.802,0	L24,17.179L12.401,5.58c-0.774-0.774-2.028-0.774-2.802,0L5.58,9.599c-0.774,0.774-0.774,2.028,0,2.802L17.179,24L5.58,35.599	c-0.774,0.774-0.774,2.028,0,2.802l4.019,4.019c0.774,0.774,2.028,0.774,2.802,0L42.42,12.401z"/>
    <path fill="#c21734" d="M24,30.821L35.599,42.42c0.774,0.774,2.028,0.774,2.802,0l4.019-4.019	c0.774-0.774,0.774-2.028,0-2.802L30.821,24L24,30.821z"/>
</svg>